<svg xmlns="http://www.w3.org/2000/svg" width="400" height="400" viewBox="0 0 400 400" fill="none" stroke="#0a9396" stroke-width="30" stroke-linecap="round" stroke-linejoin="round"><path cx="18" cy="5" r="3" d="M350 83.333A50 50 0 0 1 300 133.333a50 50 0 0 1 -50 -50 50 50 0 0 1 100 0"/><path cx="6" cy="12" r="3" d="M150 200A50 50 0 0 1 100 250 50 50 0 0 1 50 200a50 50 0 0 1 100 0"/><path cx="18" cy="19" r="3" d="M350 316.667A50 50 0 0 1 300 366.667a50 50 0 0 1 -50 -50 50 50 0 0 1 100 0"/><path x1="8.59" y1="13.51" x2="15.42" y2="17.49" d="m143.167 225.167 113.833 66.333"/><path x1="15.42" y1="6.51" x2="8.59" y2="10.49" d="m257 108.5 -113.833 66.333"/></svg>